<mxfile host="Electron" agent="Mozilla/5.0 (Macintosh; Intel Mac OS X 10_15_7) AppleWebKit/537.36 (KHTML, like Gecko) draw.io/26.0.4 Chrome/128.0.6613.186 Electron/32.2.5 Safari/537.36" version="26.0.4">
  <diagram name="Seite-1" id="0Z6mvH3tVMFMSY4owaRY">
    <mxGraphModel dx="1266" dy="1941" grid="1" gridSize="10" guides="1" tooltips="1" connect="1" arrows="1" fold="1" page="1" pageScale="1" pageWidth="827" pageHeight="1169" math="0" shadow="0">
      <root>
        <mxCell id="0" />
        <mxCell id="1" parent="0" />
        <mxCell id="ZJEL_Rol4Vm5QnRl9iUk-8" style="edgeStyle=orthogonalEdgeStyle;rounded=0;orthogonalLoop=1;jettySize=auto;html=1;entryX=0.5;entryY=0;entryDx=0;entryDy=0;" edge="1" parent="1" source="ZJEL_Rol4Vm5QnRl9iUk-1" target="ZJEL_Rol4Vm5QnRl9iUk-4">
          <mxGeometry relative="1" as="geometry">
            <mxPoint x="380" y="140" as="targetPoint" />
          </mxGeometry>
        </mxCell>
        <mxCell id="ZJEL_Rol4Vm5QnRl9iUk-1" value="START" style="rounded=1;whiteSpace=wrap;html=1;" vertex="1" parent="1">
          <mxGeometry x="320" y="30" width="120" height="60" as="geometry" />
        </mxCell>
        <mxCell id="ZJEL_Rol4Vm5QnRl9iUk-7" value="" style="edgeStyle=orthogonalEdgeStyle;rounded=0;orthogonalLoop=1;jettySize=auto;html=1;" edge="1" parent="1" source="ZJEL_Rol4Vm5QnRl9iUk-4" target="ZJEL_Rol4Vm5QnRl9iUk-10">
          <mxGeometry relative="1" as="geometry">
            <mxPoint x="480" y="270" as="targetPoint" />
          </mxGeometry>
        </mxCell>
        <mxCell id="ZJEL_Rol4Vm5QnRl9iUk-9" value="no" style="edgeLabel;html=1;align=center;verticalAlign=middle;resizable=0;points=[];" vertex="1" connectable="0" parent="ZJEL_Rol4Vm5QnRl9iUk-7">
          <mxGeometry x="-0.4667" y="2" relative="1" as="geometry">
            <mxPoint as="offset" />
          </mxGeometry>
        </mxCell>
        <mxCell id="ZJEL_Rol4Vm5QnRl9iUk-4" value="white field exists?" style="rhombus;whiteSpace=wrap;html=1;rounded=1;" vertex="1" parent="1">
          <mxGeometry x="340" y="230" width="80" height="80" as="geometry" />
        </mxCell>
        <mxCell id="ZJEL_Rol4Vm5QnRl9iUk-13" value="" style="edgeStyle=orthogonalEdgeStyle;rounded=0;orthogonalLoop=1;jettySize=auto;html=1;" edge="1" parent="1" source="ZJEL_Rol4Vm5QnRl9iUk-10" target="ZJEL_Rol4Vm5QnRl9iUk-12">
          <mxGeometry relative="1" as="geometry" />
        </mxCell>
        <mxCell id="ZJEL_Rol4Vm5QnRl9iUk-18" value="draw" style="edgeLabel;html=1;align=center;verticalAlign=middle;resizable=0;points=[];" vertex="1" connectable="0" parent="ZJEL_Rol4Vm5QnRl9iUk-13">
          <mxGeometry x="0.24" relative="1" as="geometry">
            <mxPoint as="offset" />
          </mxGeometry>
        </mxCell>
        <mxCell id="ZJEL_Rol4Vm5QnRl9iUk-15" value="" style="edgeStyle=orthogonalEdgeStyle;rounded=0;orthogonalLoop=1;jettySize=auto;html=1;" edge="1" parent="1" source="ZJEL_Rol4Vm5QnRl9iUk-10" target="ZJEL_Rol4Vm5QnRl9iUk-14">
          <mxGeometry relative="1" as="geometry" />
        </mxCell>
        <mxCell id="ZJEL_Rol4Vm5QnRl9iUk-19" value="red" style="edgeLabel;html=1;align=center;verticalAlign=middle;resizable=0;points=[];" vertex="1" connectable="0" parent="ZJEL_Rol4Vm5QnRl9iUk-15">
          <mxGeometry x="-0.35" y="-1" relative="1" as="geometry">
            <mxPoint as="offset" />
          </mxGeometry>
        </mxCell>
        <mxCell id="ZJEL_Rol4Vm5QnRl9iUk-17" value="" style="edgeStyle=orthogonalEdgeStyle;rounded=0;orthogonalLoop=1;jettySize=auto;html=1;" edge="1" parent="1" source="ZJEL_Rol4Vm5QnRl9iUk-10" target="ZJEL_Rol4Vm5QnRl9iUk-16">
          <mxGeometry relative="1" as="geometry" />
        </mxCell>
        <mxCell id="ZJEL_Rol4Vm5QnRl9iUk-20" value="green" style="edgeLabel;html=1;align=center;verticalAlign=middle;resizable=0;points=[];" vertex="1" connectable="0" parent="ZJEL_Rol4Vm5QnRl9iUk-17">
          <mxGeometry x="0.24" y="-2" relative="1" as="geometry">
            <mxPoint as="offset" />
          </mxGeometry>
        </mxCell>
        <mxCell id="ZJEL_Rol4Vm5QnRl9iUk-10" value="who wins?" style="rhombus;whiteSpace=wrap;html=1;rounded=1;" vertex="1" parent="1">
          <mxGeometry x="660" y="230" width="80" height="80" as="geometry" />
        </mxCell>
        <mxCell id="ZJEL_Rol4Vm5QnRl9iUk-23" value="" style="edgeStyle=orthogonalEdgeStyle;rounded=0;orthogonalLoop=1;jettySize=auto;html=1;" edge="1" parent="1" source="ZJEL_Rol4Vm5QnRl9iUk-12" target="ZJEL_Rol4Vm5QnRl9iUk-22">
          <mxGeometry relative="1" as="geometry" />
        </mxCell>
        <mxCell id="ZJEL_Rol4Vm5QnRl9iUk-12" value="print: draw" style="whiteSpace=wrap;html=1;rounded=1;" vertex="1" parent="1">
          <mxGeometry x="640" y="140" width="120" height="60" as="geometry" />
        </mxCell>
        <mxCell id="ZJEL_Rol4Vm5QnRl9iUk-25" style="edgeStyle=orthogonalEdgeStyle;rounded=0;orthogonalLoop=1;jettySize=auto;html=1;entryX=1;entryY=0.5;entryDx=0;entryDy=0;" edge="1" parent="1" source="ZJEL_Rol4Vm5QnRl9iUk-14" target="ZJEL_Rol4Vm5QnRl9iUk-22">
          <mxGeometry relative="1" as="geometry">
            <Array as="points">
              <mxPoint x="830" y="60" />
            </Array>
          </mxGeometry>
        </mxCell>
        <mxCell id="ZJEL_Rol4Vm5QnRl9iUk-14" value="print: red wins" style="whiteSpace=wrap;html=1;rounded=1;" vertex="1" parent="1">
          <mxGeometry x="780" y="240" width="120" height="60" as="geometry" />
        </mxCell>
        <mxCell id="ZJEL_Rol4Vm5QnRl9iUk-26" style="edgeStyle=orthogonalEdgeStyle;rounded=0;orthogonalLoop=1;jettySize=auto;html=1;entryX=0.5;entryY=0;entryDx=0;entryDy=0;" edge="1" parent="1" source="ZJEL_Rol4Vm5QnRl9iUk-16" target="ZJEL_Rol4Vm5QnRl9iUk-22">
          <mxGeometry relative="1" as="geometry">
            <Array as="points">
              <mxPoint x="930" y="370" />
              <mxPoint x="930" />
              <mxPoint x="700" />
            </Array>
          </mxGeometry>
        </mxCell>
        <mxCell id="ZJEL_Rol4Vm5QnRl9iUk-16" value="print: green wins" style="whiteSpace=wrap;html=1;rounded=1;" vertex="1" parent="1">
          <mxGeometry x="640" y="340" width="120" height="60" as="geometry" />
        </mxCell>
        <mxCell id="ZJEL_Rol4Vm5QnRl9iUk-28" value="" style="edgeStyle=orthogonalEdgeStyle;rounded=0;orthogonalLoop=1;jettySize=auto;html=1;" edge="1" parent="1" source="ZJEL_Rol4Vm5QnRl9iUk-22" target="ZJEL_Rol4Vm5QnRl9iUk-27">
          <mxGeometry relative="1" as="geometry" />
        </mxCell>
        <mxCell id="ZJEL_Rol4Vm5QnRl9iUk-22" value="" style="rhombus;whiteSpace=wrap;html=1;rounded=1;" vertex="1" parent="1">
          <mxGeometry x="660" y="20" width="80" height="80" as="geometry" />
        </mxCell>
        <mxCell id="ZJEL_Rol4Vm5QnRl9iUk-29" style="edgeStyle=orthogonalEdgeStyle;rounded=0;orthogonalLoop=1;jettySize=auto;html=1;entryX=1;entryY=0.5;entryDx=0;entryDy=0;" edge="1" parent="1" source="ZJEL_Rol4Vm5QnRl9iUk-27" target="ZJEL_Rol4Vm5QnRl9iUk-1">
          <mxGeometry relative="1" as="geometry" />
        </mxCell>
        <mxCell id="ZJEL_Rol4Vm5QnRl9iUk-27" value="click to restart" style="whiteSpace=wrap;html=1;rounded=1;" vertex="1" parent="1">
          <mxGeometry x="490" y="30" width="120" height="60" as="geometry" />
        </mxCell>
        <mxCell id="ZJEL_Rol4Vm5QnRl9iUk-36" style="edgeStyle=orthogonalEdgeStyle;rounded=0;orthogonalLoop=1;jettySize=auto;html=1;entryX=0;entryY=0.5;entryDx=0;entryDy=0;" edge="1" parent="1" source="ZJEL_Rol4Vm5QnRl9iUk-32" target="ZJEL_Rol4Vm5QnRl9iUk-10">
          <mxGeometry relative="1" as="geometry">
            <mxPoint x="540" y="300" as="targetPoint" />
          </mxGeometry>
        </mxCell>
        <mxCell id="ZJEL_Rol4Vm5QnRl9iUk-37" value="yes" style="edgeLabel;html=1;align=center;verticalAlign=middle;resizable=0;points=[];" vertex="1" connectable="0" parent="ZJEL_Rol4Vm5QnRl9iUk-36">
          <mxGeometry x="-0.7226" y="1" relative="1" as="geometry">
            <mxPoint as="offset" />
          </mxGeometry>
        </mxCell>
        <mxCell id="ZJEL_Rol4Vm5QnRl9iUk-39" value="" style="edgeStyle=orthogonalEdgeStyle;rounded=0;orthogonalLoop=1;jettySize=auto;html=1;" edge="1" parent="1" source="ZJEL_Rol4Vm5QnRl9iUk-32" target="ZJEL_Rol4Vm5QnRl9iUk-38">
          <mxGeometry relative="1" as="geometry" />
        </mxCell>
        <mxCell id="ZJEL_Rol4Vm5QnRl9iUk-40" value="no" style="edgeLabel;html=1;align=center;verticalAlign=middle;resizable=0;points=[];" vertex="1" connectable="0" parent="ZJEL_Rol4Vm5QnRl9iUk-39">
          <mxGeometry x="-0.1111" y="3" relative="1" as="geometry">
            <mxPoint as="offset" />
          </mxGeometry>
        </mxCell>
        <mxCell id="ZJEL_Rol4Vm5QnRl9iUk-32" value="someone wins?" style="rhombus;whiteSpace=wrap;html=1;rounded=1;" vertex="1" parent="1">
          <mxGeometry x="340" y="350" width="80" height="80" as="geometry" />
        </mxCell>
        <mxCell id="ZJEL_Rol4Vm5QnRl9iUk-46" value="" style="edgeStyle=orthogonalEdgeStyle;rounded=0;orthogonalLoop=1;jettySize=auto;html=1;" edge="1" parent="1" source="ZJEL_Rol4Vm5QnRl9iUk-38" target="ZJEL_Rol4Vm5QnRl9iUk-45">
          <mxGeometry relative="1" as="geometry" />
        </mxCell>
        <mxCell id="ZJEL_Rol4Vm5QnRl9iUk-38" value="click a white field" style="whiteSpace=wrap;html=1;rounded=1;" vertex="1" parent="1">
          <mxGeometry x="320" y="470" width="120" height="60" as="geometry" />
        </mxCell>
        <mxCell id="ZJEL_Rol4Vm5QnRl9iUk-48" value="" style="edgeStyle=orthogonalEdgeStyle;rounded=0;orthogonalLoop=1;jettySize=auto;html=1;" edge="1" parent="1" source="ZJEL_Rol4Vm5QnRl9iUk-45" target="ZJEL_Rol4Vm5QnRl9iUk-47">
          <mxGeometry relative="1" as="geometry">
            <Array as="points">
              <mxPoint x="300" y="600" />
            </Array>
          </mxGeometry>
        </mxCell>
        <mxCell id="ZJEL_Rol4Vm5QnRl9iUk-49" value="red" style="edgeLabel;html=1;align=center;verticalAlign=middle;resizable=0;points=[];" vertex="1" connectable="0" parent="ZJEL_Rol4Vm5QnRl9iUk-48">
          <mxGeometry x="0.1846" relative="1" as="geometry">
            <mxPoint as="offset" />
          </mxGeometry>
        </mxCell>
        <mxCell id="ZJEL_Rol4Vm5QnRl9iUk-51" value="green" style="edgeStyle=orthogonalEdgeStyle;rounded=0;orthogonalLoop=1;jettySize=auto;html=1;" edge="1" parent="1" source="ZJEL_Rol4Vm5QnRl9iUk-45" target="ZJEL_Rol4Vm5QnRl9iUk-50">
          <mxGeometry x="0.2308" relative="1" as="geometry">
            <Array as="points">
              <mxPoint x="460" y="600" />
            </Array>
            <mxPoint as="offset" />
          </mxGeometry>
        </mxCell>
        <mxCell id="ZJEL_Rol4Vm5QnRl9iUk-45" value="who&#39;s turn?&lt;div&gt;&lt;br&gt;&lt;/div&gt;" style="rhombus;whiteSpace=wrap;html=1;rounded=1;" vertex="1" parent="1">
          <mxGeometry x="340" y="560" width="80" height="80" as="geometry" />
        </mxCell>
        <mxCell id="ZJEL_Rol4Vm5QnRl9iUk-53" value="" style="edgeStyle=orthogonalEdgeStyle;rounded=0;orthogonalLoop=1;jettySize=auto;html=1;entryX=0;entryY=0.5;entryDx=0;entryDy=0;" edge="1" parent="1" source="ZJEL_Rol4Vm5QnRl9iUk-47" target="ZJEL_Rol4Vm5QnRl9iUk-52">
          <mxGeometry relative="1" as="geometry">
            <Array as="points">
              <mxPoint x="300" y="810" />
            </Array>
          </mxGeometry>
        </mxCell>
        <mxCell id="ZJEL_Rol4Vm5QnRl9iUk-47" value="color field to red" style="whiteSpace=wrap;html=1;rounded=1;" vertex="1" parent="1">
          <mxGeometry x="240" y="690" width="120" height="60" as="geometry" />
        </mxCell>
        <mxCell id="ZJEL_Rol4Vm5QnRl9iUk-54" style="edgeStyle=orthogonalEdgeStyle;rounded=0;orthogonalLoop=1;jettySize=auto;html=1;entryX=1;entryY=0.5;entryDx=0;entryDy=0;" edge="1" parent="1" source="ZJEL_Rol4Vm5QnRl9iUk-50" target="ZJEL_Rol4Vm5QnRl9iUk-52">
          <mxGeometry relative="1" as="geometry" />
        </mxCell>
        <mxCell id="ZJEL_Rol4Vm5QnRl9iUk-50" value="color field green" style="whiteSpace=wrap;html=1;rounded=1;" vertex="1" parent="1">
          <mxGeometry x="400" y="690" width="120" height="60" as="geometry" />
        </mxCell>
        <mxCell id="ZJEL_Rol4Vm5QnRl9iUk-55" style="edgeStyle=orthogonalEdgeStyle;rounded=0;orthogonalLoop=1;jettySize=auto;html=1;entryX=0;entryY=0.5;entryDx=0;entryDy=0;" edge="1" parent="1" source="ZJEL_Rol4Vm5QnRl9iUk-52" target="ZJEL_Rol4Vm5QnRl9iUk-4">
          <mxGeometry relative="1" as="geometry">
            <mxPoint x="200" y="440" as="targetPoint" />
            <Array as="points">
              <mxPoint x="380" y="870" />
              <mxPoint x="201" y="870" />
              <mxPoint x="201" y="270" />
            </Array>
          </mxGeometry>
        </mxCell>
        <mxCell id="ZJEL_Rol4Vm5QnRl9iUk-52" value="" style="rhombus;whiteSpace=wrap;html=1;rounded=1;" vertex="1" parent="1">
          <mxGeometry x="340" y="770" width="80" height="80" as="geometry" />
        </mxCell>
        <mxCell id="ZJEL_Rol4Vm5QnRl9iUk-56" style="edgeStyle=orthogonalEdgeStyle;rounded=0;orthogonalLoop=1;jettySize=auto;html=1;entryX=0.513;entryY=0.1;entryDx=0;entryDy=0;entryPerimeter=0;" edge="1" parent="1" source="ZJEL_Rol4Vm5QnRl9iUk-4" target="ZJEL_Rol4Vm5QnRl9iUk-32">
          <mxGeometry relative="1" as="geometry" />
        </mxCell>
        <mxCell id="ZJEL_Rol4Vm5QnRl9iUk-57" value="yes" style="edgeLabel;html=1;align=center;verticalAlign=middle;resizable=0;points=[];" vertex="1" connectable="0" parent="ZJEL_Rol4Vm5QnRl9iUk-56">
          <mxGeometry x="-0.2349" y="1" relative="1" as="geometry">
            <mxPoint as="offset" />
          </mxGeometry>
        </mxCell>
        <mxCell id="ZJEL_Rol4Vm5QnRl9iUk-59" value="player move" style="rounded=1;whiteSpace=wrap;html=1;" vertex="1" parent="1">
          <mxGeometry x="1090" y="70" width="120" height="60" as="geometry" />
        </mxCell>
        <mxCell id="ZJEL_Rol4Vm5QnRl9iUk-60" value="check if win" style="rounded=1;whiteSpace=wrap;html=1;" vertex="1" parent="1">
          <mxGeometry x="1090" y="150" width="120" height="60" as="geometry" />
        </mxCell>
        <mxCell id="ZJEL_Rol4Vm5QnRl9iUk-61" value="player move" style="rounded=1;whiteSpace=wrap;html=1;" vertex="1" parent="1">
          <mxGeometry x="1090" y="310" width="120" height="60" as="geometry" />
        </mxCell>
        <mxCell id="ZJEL_Rol4Vm5QnRl9iUk-62" value="player move" style="rounded=1;whiteSpace=wrap;html=1;" vertex="1" parent="1">
          <mxGeometry x="1090" y="230" width="120" height="60" as="geometry" />
        </mxCell>
        <mxCell id="ZJEL_Rol4Vm5QnRl9iUk-63" value="player move" style="rounded=1;whiteSpace=wrap;html=1;" vertex="1" parent="1">
          <mxGeometry x="1090" y="390" width="120" height="60" as="geometry" />
        </mxCell>
      </root>
    </mxGraphModel>
  </diagram>
</mxfile>
